Coordinates
version=1
nRows=7
nColumns=40
inDegrees=yes

Units are S.I. units (second, meters, Newtons, ...)
Angles are in degrees.

endheader
time	pelvis_tilt	pelvis_list	pelvis_rotation	pelvis_tx	pelvis_ty	pelvis_tz	hip_flexion_r	hip_adduction_r	hip_rotation_r	knee_angle_r	knee_angle_r_beta	ankle_angle_r	subtalar_angle_r	mtp_angle_r	hip_flexion_l	hip_adduction_l	hip_rotation_l	knee_angle_l	knee_angle_l_beta	ankle_angle_l	subtalar_angle_l	mtp_angle_l	lumbar_extension	lumbar_bending	lumbar_rotation	arm_flex_r	arm_add_r	arm_rot_r	elbow_flex_r	pro_sup_r	wrist_flex_r	wrist_dev_r	arm_flex_l	arm_add_l	arm_rot_l	elbow_flex_l	pro_sup_l	wrist_flex_l	wrist_dev_l
     20.52750000	     -7.37318600	     -3.30305555	      6.26082367	      0.99734454	      0.91379241	      0.49178121	      0.73906820	     -0.54003947	    -16.37204863	     19.48539036	     19.48539036	     18.44036120	     -0.81602591	     -6.12766215	     31.14600229	     -3.49984945	      3.82528037	     26.37221975	     26.37221975	      4.83052240	    -15.03178105	      7.87970301	     -9.04333234	      3.56397006	      5.09197636	     48.55026512	    -17.11912613	    -10.34110916	     67.83278423	     45.37320817	      0.00000000	      0.00000000	    -10.09152195	     -9.89033199	     13.07346764	     36.23413741	     44.12920089	      0.00000000	      0.00000000
     20.54628571	     -7.44885511	     -3.41779960	      5.77850987	      0.99967635	      0.91405666	      0.48728209	      0.28225990	     -0.82154042	    -16.26556789	     19.43588087	     19.43588087	     18.12649072	     -0.12682038	     -6.23776006	     31.05222689	     -3.45885043	      3.75033526	     27.26521246	     27.26521246	      5.62608225	    -15.68537308	      7.78555519	     -9.03303794	      3.78427714	      5.65030873	     47.54341836	    -17.48425909	    -10.51073711	     66.17867858	     45.43249871	      0.00000000	      0.00000000	     -9.07620559	    -10.20384063	     12.77476305	     36.89949501	     44.19620276	      0.00000000	      0.00000000
     20.56507143	     -7.58720913	     -3.45506134	      5.28705164	      1.00180250	      0.91425393	      0.48271954	     -0.02755542	     -1.31016200	    -16.52918519	     19.52547571	     19.52547571	     17.56926238	      1.02414778	     -7.37214470	     30.96870443	     -3.33803398	      3.58583131	     28.09701467	     28.09701467	      7.14290894	    -15.90875829	      9.48425098	     -8.88439109	      3.90636713	      5.43413858	     48.07384420	    -16.53700358	    -11.23857826	     60.61058480	     45.64997333	      0.00000000	      0.00000000	     -8.60666977	    -10.60921906	     12.03805197	     38.41208606	     44.40928013	      0.00000000	      0.00000000
     20.58385714	     -7.62372002	     -3.56161759	      4.77356229	      1.00405440	      0.91450893	      0.47834674	     -0.30623590	     -1.63645325	    -16.25392424	     19.83599342	     19.83599342	     17.27535275	      1.39287764	     -7.46446750	     30.67626429	     -3.34181452	      3.34944388	     28.69681458	     28.69681458	      7.82264311	    -16.35638370	      9.26279392	     -8.95579990	      4.12747171	      5.59405398	     46.72903484	    -16.46249074	    -11.24566969	     59.47106387	     45.68284110	      0.00000000	      0.00000000	     -7.56317946	    -10.94759563	     11.79513760	     38.91198216	     44.45851159	      0.00000000	      0.00000000
     20.60264286	     -7.76095519	     -3.62080034	      4.26161047	      1.00599115	      0.91454694	      0.47388783	     -0.29731214	     -2.17823026	    -16.36819188	     20.44345854	     20.44345854	     16.59717223	      2.23429233	     -9.03420729	     30.52761417	     -3.30393004	      3.00314373	     29.36722970	     29.36722970	      9.06405172	    -16.39210078	     10.22467075	     -8.78685736	      4.25282039	      5.68008662	     47.08135220	    -16.13157863	    -12.40274955	     52.99204041	     45.94512066	      0.00000000	      0.00000000	     -6.77906406	    -11.30839292	     11.07037781	     40.22509166	     44.65183575	      0.00000000	      0.00000000
     20.62142857	     -7.83870631	     -3.70683454	      3.76841299	      1.00790627	      0.91466632	      0.46958203	     -0.14923005	     -2.63489386	    -16.04077986	     21.35526583	     21.35526583	     15.82563484	      2.18913198	    -10.48840235	     30.24215415	     -3.31086929	      2.63825030	     29.87770013	     29.87770013	      9.98902857	    -16.46405884	     10.50436661	     -8.76051428	      4.39861730	      5.64064606	     46.44395720	    -15.82225676	    -13.15031682	     49.11692780	     46.08958487	      0.00000000	      0.00000000	     -5.81909308	    -11.63875203	     10.27365825	     41.15629179	     44.85556585	      0.00000000	      0.00000000
     20.64021429	     -7.89912055	     -3.79208336	      3.29647962	      1.00973032	      0.91483591	      0.46536073	      0.21956101	     -3.13251987	    -15.62211973	     22.67844206	     22.67844206	     14.98563274	      1.86954355	    -11.97694649	     29.86907639	     -3.32031737	      2.25856452	     30.23501108	     30.23501108	     10.74008284	    -16.52293051	     10.46994164	     -8.74078714	      4.52793302	      5.68834565	     45.38117694	    -15.74154544	    -13.83691620	     45.75608597	     46.21409111	      0.00000000	      0.00000000	     -4.57910145	    -11.99442074	      9.88093551	     41.76761465	     44.99254069	      0.00000000	      0.00000000
